<?xml version="1.0" encoding="UTF-8" standalone="no"?>
<svg height="100%" version="1.1" width="122px" xmlns:svg="http://www.w3.org/2000/svg" xmlns="http://www.w3.org/2000/svg" viewBox="0 0 122 45" id="ckan-logo">
	<path fill="#FFFFFF" stroke="#FFFFFF" transform="scale(0.04,-0.04) translate(0,-1000)" d="M112 481q1 1 1.5 2.5t0.5 2.5q1 2 0 4.5t-3 5.5q-5 6 -14 10t-16 4q-11 -1 -20.5 -9.5t-11.5 -19.5q-1 -11 5.5 -18.5t18.5 -6.5q9 1 21.5 9t17.5 16v0zM263 501q0 7 -7.5 13t-24.5 12q-50 18 -79.5 62t-39.5 112v0.5v0.5v0.5v0.5q-3 2 -5.5 3t-5.5 -1q-7 -6 -2.5 -33.5 t19.5 -94.5l4.5 -17.5l4.5 -17.5q3 -15 3.5 -27.5t-0.5 -24.5q-2 -11 -6.5 -24t-12.5 -30l-19 -39q-39 -78 -53 -111.5t-9 -38.5q3 -3 6.5 -0.5t6.5 5.5h0.5t0.5 1v0.5v0.5q11 25 22.5 47.5t23.5 42.5q28 44 61.5 76t72.5 51q15 7 24 13.5t12 11.5q1 2 1.5 3.5t1.5 2.5v0z M722 683h0.5h1.5h0.5h0.5q4 2 7.5 4t5.5 5q1 1 1 2v2q0 10 -39 12t-133 1l-22 -0.5l-22 -0.5q-18 0 -31.5 2t-23.5 6q-10 5 -19.5 12.5t-18.5 19.5l-11 14l-11 14q-42 52 -60.5 71.5t-26.5 14.5q-1 0 -1.5 -1t-1.5 -1q-1 -3 -1.5 -6t-0.5 -6v0v-1h1v0q46 -47 62 -103t1 -120 q-5 -21 -4.5 -32.5t5.5 -13.5q5 -3 16 3t29 20q56 47 130 67.5t166 14.5v0zM522 807q-10 3 -22.5 -3t-20.5 -19q-8 -12 -9 -30t6 -21t25 8t26 24t6.5 25t-11.5 16v0zM351 219l15.5 19.5l15.5 19.5q13 16 24.5 26.5t23.5 18.5q13 7 27.5 12t34.5 8l48 8q100 16 142 26t44 21 q0 5 -4.5 7.5t-9.5 4.5h-0.5h-1.5h-0.5h-0.5q-100 -26 -175 -16.5t-126 50.5q-15 13 -25.5 17t-16.5 1l-2.5 -2.5t-1.5 -2.5q-4 -6 -5.5 -17t-0.5 -28q1 -48 -13.5 -97t-45.5 -98q-14 -22 -31 -43.5t-36 -43.5h-0.5h-0.5q0 -1 -0.5 -1.5l-0.5 -0.5q-1 -5 -1.5 -10t3.5 -7 q7 -6 33.5 23t87.5 105v0zM433 224q4 -7 9.5 -12.5t13.5 -7.5q5 -2 11 -1t11 4t9 7.5t6 11.5q3 7 2.5 15.5t-4.5 16.5q-6 13 -24 23t-26 5l-2 -2l-2 -2l-2 -4l-2 -4q-4 -11 -4 -26t4 -24v0zM1009 559q1 1 1.5 2t0.5 2l-0.5 1t-1.5 2q-4 2 -38.5 21t-87.5 37.5t-117 28.5 t-125 -6q-1 0 -2 -0.5t-2 -1.5v-1.5v-0.5q0 -1 0.5 -2t2.5 -1q81 -6 151.5 -38.5t94.5 -46.5l5 -3l-5 -4q-12 -9 -37.5 -26.5t-59.5 -37.5t-75 -38.5t-83 -28.5q-2 -1 -3 -2t-1 -3q0 -1 1 -2t2 -1q64 -6 129.5 16t120 51t90.5 55t39 28v0zM322 786q1 1 1.5 2t0.5 2 q-24 78 -97.5 103t-77.5 25h-1t-1 -1q-1 0 -1 -0.5t-1 -1.5q0 -2 -7 -30t-11 -66t-0.5 -80t24.5 -73q1 -1 2 -1h2q1 1 1.5 2t0.5 3q-10 56 -0.5 113.5t14.5 76.5l1 4l3 -1q16 -3 61.5 -20.5t81.5 -56.5q1 -1 2 -1t2 1v0zM252 189q1 2 0.5 3t-1.5 2v0q-1 1 -2 0.5t-2 -1.5 q-52 -58 -111.5 -91t-79.5 -41l-4 -2v5q1 24 9.5 94.5t38.5 138.5v3t-1 2h-2t-2 -1q-33 -42 -52 -95.5t-28 -102.5t-11.5 -83.5t-2.5 -37.5q0 -1 0.5 -2l0.5 -1q1 -1 1.5 -1h1.5q2 1 32 14t69.5 38.5t80 65t65.5 93.5v0zM1426 307h54v-51h2q12 27 40 43t60 16q59 0 87 -37 t28 -102v-191h-57v167q0 56 -14 84t-51 31q-48 0 -70.5 -37t-22.5 -96v-149h-56v322v0zM1958 284q21 14 46 22t54 8q66 0 94.5 -33.5t28.5 -99.5v-133q0 -28 1 -42t2 -21h-53v42h-1q-10 -15 -33 -32.5t-62 -17.5q-50 0 -81 24t-31 77q0 60 49.5 83t92.5 23q17 0 30 -0.5 t30 -1.5q0 42 -16.5 63t-58.5 21q-24 0 -48 -8.5t-41 -23.5l-3 50v0zM2125 139q-9 0 -18 0.5t-18 0.5q-23 0 -64.5 -9.5t-41.5 -52.5q0 -26 18.5 -39.5t38.5 -13.5q41 0 63 24.5t22 60.5v29zM2403 255q-6 2 -12 2.5t-11 0.5q-40 0 -64 -35.5t-24 -96.5v-141h-59v320h55v-53 h1q12 25 35.5 41.5t48.5 16.5q10 0 17 -1t13 -2v-52v0zM2700 315q69 0 112 -48t43 -121q0 -69 -43.5 -118.5t-111.5 -49.5q-70 0 -113 49.5t-43 118.5q0 73 42.5 121t113.5 48v0zM2700 25q49 0 72 39t23 82q0 46 -25 83.5t-70 37.5q-46 0 -71 -37.5t-25 -83.5q0 -43 23 -82 t73 -39v0zM1900 307h-83v94l-59 -19v-75l-48 -48h48v-188q0 -48 26.5 -70.5t72.5 -22.5q13 0 25.5 2.5t22.5 5.5v49q-6 -4 -15.5 -7t-22.5 -3q-20 0 -35 15t-15 43v176h83v48v0zM2440 307h59v-322h-59v322zM2469 350q15 0 26 10.5t11 25.5q0 16 -11 26.5t-26 10.5t-25.5 -11 t-10.5 -26t10.5 -25.5t25.5 -10.5zM1179 433q48 0 85.5 -17t63.5 -47.5t39.5 -72t13.5 -90.5q0 -51 -13.5 -92.5t-39.5 -72t-63.5 -47t-85.5 -16.5q-47 0 -84.5 16.5t-63.5 47t-39.5 72t-13.5 92.5q0 48 13.5 90t39.5 72.5t63.5 47.5t84.5 17zM1179 33q73 0 106 53.5 t33 118.5q0 68 -34.5 120.5t-104.5 52.5q-69 0 -103 -53t-34 -120q0 -65 32.5 -118.5t104.5 -53.5z"/>
</svg>
